<svg width="97" height="96" viewBox="0 0 97 96" fill="none" xmlns="http://www.w3.org/2000/svg">
<path d="M48.3333 72H16.3333C14.2116 72 12.1767 71.1571 10.6765 69.6569C9.17617 68.1566 8.33331 66.1217 8.33331 64V32C8.33331 29.8783 9.17617 27.8434 10.6765 26.3431C12.1767 24.8429 14.2116 24 16.3333 24H80.3333C82.455 24 84.4899 24.8429 85.9902 26.3431C87.4904 27.8434 88.3333 29.8783 88.3333 32V52" stroke="#FF4D00" stroke-width="5.33333" stroke-linecap="round" stroke-linejoin="round"/>
<path d="M72.3333 48H72.3741" stroke="#FF4D00" stroke-width="5.33333" stroke-linecap="round" stroke-linejoin="round"/>
<path d="M76.3333 88V64" stroke="#FF4D00" stroke-width="5.33333" stroke-linecap="round" stroke-linejoin="round"/>
<path d="M88.3333 76L76.3333 64L64.3333 76" stroke="#FF4D00" stroke-width="5.33333" stroke-linecap="round" stroke-linejoin="round"/>
<path d="M24.3333 48H24.3741" stroke="#FF4D00" stroke-width="5.33333" stroke-linecap="round" stroke-linejoin="round"/>
<path d="M48.3333 56C52.7516 56 56.3333 52.4183 56.3333 48C56.3333 43.5817 52.7516 40 48.3333 40C43.915 40 40.3333 43.5817 40.3333 48C40.3333 52.4183 43.915 56 48.3333 56Z" stroke="#FF4D00" stroke-width="5.33333" stroke-linecap="round" stroke-linejoin="round"/>
</svg>
