<svg width="128" height="128" viewBox="0 0 128 128" fill="none" xmlns="http://www.w3.org/2000/svg">
<path fill-rule="evenodd" clip-rule="evenodd" d="M64 0C87.7388 0 99.6089 -0.000655602 108.45 5.14374C114.242 8.51405 119.053 13.3625 122.397 19.2C127.501 28.1107 127.5 40.0742 127.5 64C127.5 87.9258 127.501 99.8893 122.397 108.8C119.053 114.637 114.242 119.486 108.45 122.856C99.6089 128.001 87.7388 128 64 128C40.2612 128 28.3911 128.001 19.55 122.856C13.7581 119.486 8.94753 114.637 5.60356 108.8C0.49935 99.8893 0.5 87.9258 0.5 64C0.5 40.0742 0.49935 28.1107 5.60356 19.2C8.94753 13.3625 13.7581 8.51405 19.55 5.14374C28.3911 -0.000655602 40.2612 0 64 0ZM70.35 12.8C42.2938 12.8 19.55 35.7229 19.55 64C19.55 92.2771 42.2938 115.2 70.35 115.2C98.4062 115.2 121.15 92.2771 121.15 64C121.15 35.7229 98.4062 12.8 70.35 12.8Z" fill="#FF4D00"/>
<path d="M114.8 64C114.8 81.673 100.585 96 83.05 96C65.5151 96 51.3 81.673 51.3 64C51.3 46.327 65.5151 32 83.05 32C100.585 32 114.8 46.327 114.8 64Z" fill="#FF4D00"/>
</svg>
